<svg width="800" height="400" viewBox="0 0 800 400" fill="none" xmlns="http://www.w3.org/2000/svg">
<rect width="800" height="400" fill="white"/>
<g clip-path="url(#clip0)">
<path d="M470.604 240.548V213.18C470.604 196.642 485.149 196.933 492.758 198.19V179.525C480.622 178.461 473.398 181.846 470.123 188.422H469.737L469.834 179.815H452.977V240.548H470.604Z" fill="black"/>
<path d="M544.002 240.548H554.982L573.091 217.628L588.406 240.548H608.827L584.746 205.346L605.841 179.718H585.517L561.436 210.278H561.051L561.243 149.352H544.002V240.548Z" fill="black"/>
<path d="M346.06 240.548H359.641L380.447 201.478L400.578 240.548H414.352L445.271 179.718H424.755L405.779 218.499L387.767 179.718H373.03L354.054 218.692L336.042 179.718H315.525L346.06 240.548Z" fill="black"/>
<path d="M516.165 171.015C522.123 171.015 526.953 166.165 526.953 160.183C526.953 154.201 522.123 149.352 516.165 149.352C510.206 149.352 505.376 154.201 505.376 160.183C505.376 166.165 510.206 171.015 516.165 171.015Z" fill="black"/>
<path d="M524.834 179.718H507.496V240.548H524.834V179.718Z" fill="black"/>
<path d="M658.047 220.336C655.928 223.527 651.497 227.492 644.08 227.492C635.411 227.492 629.247 222.464 627.898 215.21H675C675 213.953 675 212.116 675 210.375C675 192.774 662.382 178.655 643.695 178.655C625.394 178.655 611.235 192.581 611.235 210.375C611.235 228.073 625.105 242.095 643.695 242.095C657.566 242.095 665.946 236.583 671.34 229.523L658.047 220.336ZM642.732 192.291C650.727 192.291 656.313 196.739 658.24 203.122H627.128C629.054 196.739 634.545 192.291 642.732 192.291Z" fill="black"/>
<path d="M165.648 184.941C174.028 184.941 177.977 186.488 184.046 192.581L216.602 225.268C217.566 226.235 217.758 226.622 217.951 227.202C218.047 227.396 218.047 227.686 218.047 227.879C218.047 228.073 218.047 228.363 217.951 228.556C217.758 229.136 217.566 229.523 216.602 230.49L194.352 252.927C193.389 253.894 193.004 254.087 192.426 254.281C192.233 254.377 191.944 254.377 191.751 254.377C191.559 254.377 191.27 254.377 191.077 254.281C190.499 254.087 190.114 253.894 189.151 252.927L126.06 189.583C124.229 187.745 124.904 184.941 127.986 184.941H165.648Z" fill="#08CF65"/>
<path d="M257.539 145C249.159 145 245.21 146.547 239.142 152.64L206.585 185.327C205.622 186.295 205.429 186.681 205.236 187.262C205.14 187.455 205.14 187.745 205.14 187.939C205.14 188.132 205.14 188.422 205.236 188.616C205.429 189.196 205.622 189.583 206.585 190.55L228.835 212.889C229.799 213.857 230.184 214.05 230.762 214.243C230.954 214.34 231.243 214.34 231.436 214.34C231.629 214.34 231.918 214.34 232.11 214.243C232.688 214.05 233.074 213.857 234.037 212.889L297.128 149.545C298.958 147.708 298.284 145 295.201 145L257.539 145Z" fill="#08CF65"/>
</g>
<defs>
<clipPath id="clip0">
<rect width="550" height="110.248" fill="white" transform="translate(125 145)"/>
</clipPath>
</defs>
</svg>
